PathFileType	4	(X/Y/Z)	G:\GRF\jawan data\CompiledGRF\03. Mohit Kumar\0231~ac~Standing_markers.trc
DataRate	CameraRate	NumFrames	NumMarkers	Units	OrigDataRate	OrigDataStartFrame	OrigNumFrames
100.000000	100.000000	6	18	mm	100.000000	292	584
Frame#	Time	c7			r should			l should			sacrum			r asis			r bar 1			r knee 1			r bar 2			r mall			r heel			r met			l asis			l bar 1			l knee 1			l bar 2			l mall			l heel			l met			
		X1	Y1	Z1	X2	Y2	Z2	X3	Y3	Z3	X4	Y4	Z4	X5	Y5	Z5	X6	Y6	Z6	X7	Y7	Z7	X8	Y8	Z8	X9	Y9	Z9	X10	Y10	Z10	X11	Y11	Z11	X12	Y12	Z12	X13	Y13	Z13	X14	Y14	Z14	X15	Y15	Z15	X16	Y16	Z16	X17	Y17	Z17	X18	Y18	Z18	

293	2.92	294.348388671875	1518.492309570313	149.5135192871094	384.6532897949219	1462.111206054688	320.2689208984375	380.958984375	1473.476806640625	-19.82222938537598	274.6450500488281	1057.982666015625	133.4019622802734	453.0938110351563	1019.547729492188	265.5693969726563	344.8183898925781	613.1478881835938	331.9585571289063	356.5264282226563	524.8858032226563	281.2267456054688	289.3740234375	202.3560180664063	302.634765625	303.0128784179688	75.71392059326172	241.4919281005859	251.6562347412109	38.89366912841797	189.7753143310547	453.6485900878906	38.82975769042969	253.0697937011719	462.3145141601563	1025.855590820313	13.00126075744629	352.8079528808594	606.9144287109375	-42.72960662841797	356.0762939453125	517.7550048828125	15.51832580566406	293.0342407226563	243.6424407958984	-19.7998161315918	299.6582336425781	75.13367462158203	57.31175231933594	246.522705078125	34.55898284912109	116.7080459594727	447.4920043945313	39.49800491333008	58.29400634765625	
294	2.93	294.3279113769531	1518.529663085938	149.4775238037109	384.7966003417969	1462.178833007813	320.2498474121094	381.0158386230469	1473.54345703125	-19.8225154876709	274.6275634765625	1057.9736328125	133.4662933349609	452.8742370605469	1019.488830566406	265.6488952636719	344.806640625	613.1748657226563	332.0020141601563	356.449951171875	524.9105834960938	281.2406921386719	289.45361328125	202.3162841796875	302.6540222167969	302.8783874511719	75.69924926757813	241.4585876464844	251.5074615478516	38.96572113037109	189.7699279785156	453.6429138183594	38.84450531005859	253.0506896972656	462.2838439941406	1025.886474609375	13.09241962432861	352.8035278320313	606.9596557617188	-42.69499969482422	356.2438354492188	517.8341064453125	15.55826282501221	293.0641174316406	243.6490783691406	-19.78893661499023	299.6076049804688	75.20973968505859	57.25414276123047	246.2569732666016	34.72145843505859	116.6407852172852	447.4207763671875	39.56021499633789	58.31972503662109	
295	2.94	294.61328125	1518.4609375	149.4603576660156	384.9032897949219	1462.236206054688	320.2635192871094	381.3288269042969	1473.549194335938	-19.80045509338379	274.609619140625	1057.975830078125	133.4685363769531	452.7176818847656	1019.511962890625	265.769287109375	344.7564697265625	613.1556396484375	332.0065612792969	356.4075317382813	524.8602294921875	281.2826232910156	289.3905639648438	202.328857421875	302.6349487304688	302.9228515625	75.72553253173828	241.4981689453125	251.6717376708984	38.88157272338867	189.7855682373047	453.7803039550781	38.78738784790039	253.0585479736328	462.1217651367188	1025.850463867188	13.09533500671387	352.8354187011719	606.9603881835938	-42.64345932006836	356.16748046875	517.836669921875	15.60147762298584	293.0081481933594	243.6339721679688	-19.75812339782715	299.5744323730469	75.18081665039063	57.31927108764648	246.2933044433594	34.72646331787109	116.6053085327148	447.4636840820313	39.51723861694336	58.35945129394531	
296	2.95	294.7398986816406	1518.490234375	149.4838104248047	385.02587890625	1462.275024414063	320.2970886230469	381.3784484863281	1473.606567382813	-19.75225067138672	274.5975341796875	1057.993530273438	133.4695587158203	452.7606811523438	1019.5556640625	265.8288879394531	344.7200927734375	613.1342163085938	332.0475769042969	356.3841552734375	524.8341674804688	281.3152160644531	289.3454284667969	202.3217163085938	302.686279296875	302.93408203125	75.72838592529297	241.5102996826172	251.9184875488281	38.78039932250977	189.7988586425781	453.8054504394531	38.78412246704102	253.0676422119141	462.2225952148438	1025.872436523438	13.15234088897705	352.8455505371094	606.9600219726563	-42.60998153686523	356.0203247070313	517.7783813476563	15.63161277770996	293.1581115722656	243.6379089355469	-19.76984977722168	299.5228881835938	75.25018310546875	57.29866409301758	246.4632568359375	34.67910766601563	116.6587219238281	447.5007629394531	39.42782211303711	58.34467315673828	
297	2.96	294.7174987792969	1518.517822265625	149.512939453125	384.9597473144531	1462.348266601563	320.3055725097656	381.5072021484375	1473.61279296875	-19.69850730895996	274.4801635742188	1058.022216796875	133.5115356445313	452.7398376464844	1019.526245117188	265.8822021484375	344.7259826660156	613.1469116210938	332.0845336914063	356.3114318847656	524.81689453125	281.33203125	289.3309631347656	202.3029174804688	302.6950988769531	302.8996887207031	75.67076110839844	241.5032958984375	251.619873046875	38.90987396240234	189.8428497314453	453.7663269042969	38.8267822265625	253.0487823486328	462.3461608886719	1025.950439453125	13.25693225860596	352.8286743164063	606.9662475585938	-42.54043579101563	356.0831604003906	517.7737426757813	15.70365810394287	293.2371826171875	243.6764068603516	-19.76572227478027	299.5749816894531	75.26982116699219	57.30887985229492	246.5251007080078	34.61397552490234	116.7075958251953	447.3971252441406	39.45059204101563	58.37344741821289	
298	2.97	294.7931823730469	1518.507690429688	149.5073699951172	385.1639709472656	1462.388549804688	320.373291015625	381.5081787109375	1473.67236328125	-19.67218589782715	274.3501586914063	1058.066162109375	133.5395202636719	452.6439208984375	1019.489501953125	265.9462280273438	344.726318359375	613.144775390625	332.0872192382813	356.3400268554688	524.797119140625	281.3246459960938	289.3580017089844	202.3052215576172	302.665283203125	302.8742980957031	75.67501068115234	241.4670257568359	251.4499969482422	39.00513076782227	189.8320922851563	453.7815856933594	38.82883834838867	253.0234222412109	462.2111206054688	1025.921264648438	13.36211681365967	352.8885192871094	606.977294921875	-42.51247024536133	356.1813049316406	517.8211669921875	15.73839950561523	293.2257690429688	243.7099761962891	-19.72835159301758	299.5918884277344	75.31508636474609	57.27399826049805	246.6469116210938	34.54484176635742	116.6826477050781	447.4322814941406	39.55884170532227	58.36453628540039	
